<svg viewBox="0 0 64 64" xmlns="http://www.w3.org/2000/svg"><circle cx="39.5" cy="25.5" fill="#e5efef" r="21.5"/><g stroke="#4c241d" stroke-linecap="round" stroke-linejoin="round" stroke-width="2"><path d="m4 8 4 4" fill="none"/><path d="m8 8-4 4" fill="none"/><path d="m55 57 4 4" fill="none"/><path d="m59 57-4 4" fill="none"/><path d="m48 41a23.014 23.014 0 0 1 -21.618-30.869 26.017 26.017 0 0 0 -22.7 19.938 4.976 4.976 0 0 1 -.382 9.9 25.969 25.969 0 0 0 38.265 18.772 2.994 2.994 0 1 1 4.871-3.481 25.935 25.935 0 0 0 8.256-15.252 23 23 0 0 1 -6.692.992z" fill="#816982"/></g><circle cx="28" cy="52" fill="#e7d1c4" r="5"/><path d="m32.223 49.322a5 5 0 1 0 -1.156 6.627" fill="none" stroke="#4c241d" stroke-linecap="round" stroke-linejoin="round" stroke-width="2"/><path d="m32.735 53.612a5 5 0 0 0 .265-1.612" fill="#b5a19c" stroke="#4c241d" stroke-linecap="round" stroke-linejoin="round" stroke-width="2"/><circle cx="17" cy="26" fill="#e7d1c4" r="3"/><path d="m20 26a3 3 0 1 0 -3 3" fill="none" stroke="#4c241d" stroke-linecap="round" stroke-linejoin="round" stroke-width="2"/><circle cx="7" cy="60" fill="#4c241d" r="1"/><circle cx="15" cy="43" fill="#e7d1c4" r="3" stroke="#4c241d" stroke-linecap="round" stroke-linejoin="round" stroke-width="2"/><path d="m33 25h16a0 0 0 0 1 0 0v19.459a1.541 1.541 0 0 1 -1.541 1.541h-12.918a1.541 1.541 0 0 1 -1.541-1.541v-19.459a0 0 0 0 1 0 0z" fill="#ffce56" stroke="#4c241d" stroke-linecap="round" stroke-linejoin="round" stroke-width="2"/><circle cx="41" cy="33" fill="#fff" r="5"/><path d="m41 26v20" fill="none" stroke="#4c241d" stroke-linecap="round" stroke-linejoin="round" stroke-width="2"/><path d="m33 41h16" fill="none" stroke="#4c241d" stroke-linecap="round" stroke-linejoin="round" stroke-width="2"/><path d="m50.145 25a7.852 7.852 0 0 0 1.855-5c0-4.971-11-9-11-9s-11 4.029-11 9a7.852 7.852 0 0 0 1.855 5z" fill="#e66353" stroke="#4c241d" stroke-linecap="round" stroke-linejoin="round" stroke-width="2"/><path d="m41 11v-10" fill="none" stroke="#4c241d" stroke-linecap="round" stroke-linejoin="round" stroke-width="2"/></svg>