<svg viewBox="0 0 64 64" xmlns="http://www.w3.org/2000/svg"><g fill="#28282b"><path d="m55.707 11.293-10-10a1.115 1.115 0 0 0 -.707-.293h-36a1 1 0 0 0 -1 1v60a1 1 0 0 0 1 1h46a1 1 0 0 0 1-1v-50a1.092 1.092 0 0 0 -.293-.707zm-3.121-.293h-6.586v-6.586zm-42.586 50v-58h34v9a1 1 0 0 0 1 1h9v48z"/><path d="m34 8h7a1 1 0 0 0 0-2h-7a1 1 0 0 0 0 2z"/><path d="m34 13h7a1 1 0 0 0 0-2h-7a1 1 0 0 0 0 2z"/><path d="m50 16h-16a1 1 0 0 0 0 2h16a1 1 0 0 0 0-2z"/><path d="m50 21h-16a1 1 0 0 0 0 2h16a1 1 0 0 0 0-2z"/><path d="m50 26h-16a1 1 0 0 0 0 2h16a1 1 0 0 0 0-2z"/><path d="m50 31h-36a1 1 0 0 0 0 2h36a1 1 0 0 0 0-2z"/><path d="m50 36h-36a1 1 0 0 0 0 2h36a1 1 0 0 0 0-2z"/><path d="m50 41h-36a1 1 0 0 0 0 2h36a1 1 0 0 0 0-2z"/><path d="m50 46h-36a1 1 0 0 0 0 2h36a1 1 0 0 0 0-2z"/><path d="m50 51h-36a1 1 0 0 0 0 2h36a1 1 0 0 0 0-2z"/><path d="m50 56h-36a1 1 0 0 0 0 2h36a1 1 0 0 0 0-2z"/><path d="m22 19a5 5 0 1 0 -5-5 5.006 5.006 0 0 0 5 5zm0-8a3 3 0 1 1 -3 3 3 3 0 0 1 3-3z"/><path d="m14 28h16a1 1 0 0 0 1-1v-20a1 1 0 0 0 -1-1h-16a1 1 0 0 0 -1 1v20a1 1 0 0 0 1 1zm1.473-2a7.325 7.325 0 0 1 13.054 0zm13.527-18v15.164a9.325 9.325 0 0 0 -14 0v-15.164z"/></g></svg>