<svg enable-background="new 0 0 256 256" height="256" viewBox="0 0 256 256" width="256" xmlns="http://www.w3.org/2000/svg"><path d="m133.9 96.8 3.4-26.6c6.4 2 11 8 11 14.8v11.8z" fill="#e0e0e0"/><path d="m88.7 96.8v-11.8c0-6.4 5.8-12.9 13.2-14.9l3.5 26.7z" fill="#e0e0e0"/><path d="m119.5 65.8c-10.8 0-19.5-8.8-19.5-19.5 0-10.8 8.8-19.5 19.5-19.5 10.8 0 19.5 8.8 19.5 19.5 0 10.8-8.7 19.5-19.5 19.5zm0-35.7c-8.9 0-16.2 7.3-16.2 16.2s7.3 16.2 16.2 16.2 16.2-7.3 16.2-16.2-7.3-16.2-16.2-16.2z" fill="#4a555f"/><path d="m119.5 59.2c-7.1 0-12.9-5.8-12.9-12.9s5.8-12.9 12.9-12.9 12.9 5.8 12.9 12.9-5.8 12.9-12.9 12.9z" fill="#ffd552"/><g fill="#4a555f"><path d="m155.4 96.8h-3.4c0-1.3 0-2.6 0-3.9 0-2.5.1-5.2 0-7.7-.3-10.9-9-19.2-20.1-19.4-5-.1-10 0-14.9 0-3 0-6.1 0-9.1 0-2.3 0-4.7 0-6.9.4-5.5 1.1-10.4 4.6-13.2 9.5-3 5.1-2.8 11.4-2.7 17.4 0 1.3.1 2.5.1 3.7h-3.3c0-1.2 0-2.4-.1-3.6-.1-6.5-.3-13.2 3.1-19.1 3.3-5.7 9.1-9.8 15.5-11.1 2.5-.5 5.1-.5 7.6-.4h9.1 15c12.7.2 23 10.1 23.4 22.6.1 2.6.1 5.3 0 7.9-.1 1.2-.1 2.5-.1 3.7z"/><path d="m108.9 97-4.4-34.5h6.9l6.8 8-7.6 13.2 1.6 12.8zm-.6-31.2 1.6 12.5 4.2-7.4-4.3-5.1z"/><path d="m130.4 97-3.3-.4 1.6-12.8-7.6-13.2 6.8-8h6.9zm-5.2-26.1 4.2 7.4 1.6-12.5h-1.6z"/><path d="m117.9 74.8h3.3v22.1h-3.3z"/><path d="m119.5 77.4-4.6-5.6 2.5-2.1 2.2 2.6 2.6-2.9 2.5 2.2z"/><circle cx="124.6" cy="87.5" r="1.9"/><path d="m155.4 98.5h-73.6v-82.2h73.5v82.2zm-70.3-3.3h66.9v-75.6h-66.9z"/><path d="m175.5 30.7h56.4v3.3h-56.4z"/><path d="m175.5 48.6h56.4v3.3h-56.4z"/><path d="m175.5 66.5h56.4v3.3h-56.4z"/><path d="m175.5 84.4h56.4v3.3h-56.4z"/><path d="m83.7 123.6h13.3v3.3h-13.3z"/><path d="m109.5 123.6h122.4v3.3h-122.4z"/><path d="m109.5 142.5h122.4v3.3h-122.4z"/><path d="m83.7 163.8h13.3v3.3h-13.3z"/><path d="m109.5 163.8h122.4v3.3h-122.4z"/><path d="m109.5 182.8h122.4v3.3h-122.4z"/><path d="m83.7 204.1h13.3v3.3h-13.3z"/><path d="m109.5 204.1h122.4v3.3h-122.4z"/><path d="m109.5 223.1h122.4v3.3h-122.4z"/><path d="m41 135.9h-29.6v-110.2h29.6zm-26.3-3.3h23v-103.6h-23z"/></g><path d="m18.5 32.9h15.3v95.9h-15.3z" fill="#f68f6f"/><path d="m30.8 247.3h-9.2l-.3-1.5c-6.6-34-9.9-68.8-9.9-103.4v-9.8h29.6v9.8c0 34.6-3.3 69.4-9.9 103.4zm-6.5-3.3h3.7c6.4-33.4 9.6-67.6 9.6-101.6v-6.5h-23v6.5c.1 34 3.3 68.2 9.7 101.6z" fill="#4a555f"/><path d="m26.2 232.7c-5.1-29.8-7.7-60.1-7.7-90.3v-2.6h15.3v2.6c.1 30.2-2.5 60.5-7.6 90.3z" fill="#f68f6f"/><path d="m8.7 102.1h-3.3v-83.2h35.6v8.5h-3.3v-5.2h-29z" fill="#4a555f"/><path d="m24.5 245.7h3.3v10.3h-3.3z" fill="#4a555f"/><path d="m250.6 254.1h-185.8v-254.1h185.8zm-182.5-3.3h179.2v-247.5h-179.2z" fill="#4a555f"/></svg>